<svg width="210" height="209" viewBox="0 0 210 209" fill="none" xmlns="http://www.w3.org/2000/svg">
<g filter="url(#filter0_i_631_351)">
<ellipse cx="105" cy="104.5" rx="105" ry="104.5" fill="#C53F3F"/>
</g>
<path d="M91.4567 95.4547C87.1787 94.605 83.1937 98.0622 83.1937 102.428V117.194C83.1937 120.182 85.2741 122.585 88.087 123.639C93.4199 125.632 97.2583 130.788 97.2583 136.823C97.2583 144.587 90.9586 150.886 83.1937 150.886C75.4289 150.886 69.1292 144.587 69.1292 136.823V64.1646C69.1292 60.2679 65.9939 57.1331 62.0969 57.1331H48.0323C44.1352 57.1331 41 60.2679 41 64.1646V136.823C41 163.045 65.0563 183.758 92.2771 178.045C108.217 174.705 121.08 161.814 124.421 145.906C129.519 121.618 113.579 99.8494 91.4567 95.4547ZM102.24 29.0071C99.5438 28.8606 97.2583 30.9994 97.2583 33.6948V42.9529C97.2583 45.4432 99.1922 47.4941 101.654 47.6113C139.569 49.6621 170.043 80.4249 172.24 118.366C172.387 120.827 174.438 122.76 176.899 122.76H186.305C189 122.76 191.139 120.475 190.993 117.78C188.502 69.9655 150.059 31.5267 102.24 29.0071ZM102.327 57.1331C99.6024 56.928 97.2583 59.096 97.2583 61.85V71.2546C97.2583 73.7157 99.1629 75.7372 101.595 75.913C124.098 77.7588 142.031 95.8942 144.052 118.454C144.287 120.885 146.279 122.76 148.711 122.76H158.146C160.871 122.76 163.069 120.416 162.864 117.692C160.402 85.4348 134.588 59.6234 102.327 57.1331Z" fill="black"/>
<defs>
<filter id="filter0_i_631_351" x="0" y="0" width="210" height="213" filterUnits="userSpaceOnUse" color-interpolation-filters="sRGB">
<feFlood flood-opacity="0" result="BackgroundImageFix"/>
<feBlend mode="normal" in="SourceGraphic" in2="BackgroundImageFix" result="shape"/>
<feColorMatrix in="SourceAlpha" type="matrix" values="0 0 0 0 0 0 0 0 0 0 0 0 0 0 0 0 0 0 127 0" result="hardAlpha"/>
<feOffset dy="4"/>
<feGaussianBlur stdDeviation="2"/>
<feComposite in2="hardAlpha" operator="arithmetic" k2="-1" k3="1"/>
<feColorMatrix type="matrix" values="0 0 0 0 0 0 0 0 0 0 0 0 0 0 0 0 0 0 0.25 0"/>
<feBlend mode="normal" in2="shape" result="effect1_innerShadow_631_351"/>
</filter>
</defs>
</svg>
