<svg width="161" height="70" viewBox="0 0 161 70" fill="none" xmlns="http://www.w3.org/2000/svg">
<rect x="6" width="14" height="70" fill="#242424"/>
<path d="M12.2004 38.0323C15.6775 39.584 19.5393 40.2372 23.381 39.9233C27.2228 39.6094 30.9031 38.3401 34.0362 36.2483C37.1693 34.1566 39.6399 31.3194 41.1891 28.0341C42.7382 24.7488 43.309 21.1363 42.8414 17.5753C42.3739 14.0143 40.8853 10.6358 38.5316 7.79393C36.178 4.95205 33.0459 2.75139 29.4637 1.42258C25.8815 0.0937688 21.981 -0.314276 18.1709 0.24121C14.3609 0.796696 10.7816 2.29526 7.80823 4.57986L15.0224 12.7047C16.4291 11.6239 18.1225 10.9149 19.925 10.6521C21.7275 10.3893 23.5729 10.5824 25.2676 11.211C26.9624 11.8397 28.4441 12.8808 29.5577 14.2253C30.6712 15.5698 31.3754 17.1682 31.5966 18.8529C31.8178 20.5376 31.5478 22.2466 30.8149 23.8009C30.082 25.3552 28.9131 26.6975 27.4309 27.6871C25.9486 28.6767 24.2075 29.2772 22.3899 29.4257C20.5724 29.5742 18.7454 29.2652 17.1004 28.5311L12.2004 38.0323Z" fill="#242424"/>
<path d="M14.2004 68.0323C17.6775 69.584 21.5393 70.2372 25.381 69.9233C29.2228 69.6094 32.9031 68.3401 36.0362 66.2483C39.1693 64.1566 41.6399 61.3194 43.1891 58.0341C44.7382 54.7488 45.309 51.1363 44.8414 47.5753C44.3739 44.0143 42.8853 40.6358 40.5316 37.7939C38.178 34.9521 35.0459 32.7514 31.4637 31.4226C27.8815 30.0938 23.981 29.6857 20.1709 30.2412C16.3609 30.7967 12.7816 32.2953 9.80823 34.5799L17.0224 42.7047C18.4291 41.6239 20.1225 40.9149 21.925 40.6521C23.7275 40.3893 25.5729 40.5824 27.2676 41.211C28.9624 41.8397 30.4441 42.8808 31.5577 44.2253C32.6712 45.5698 33.3754 47.1682 33.5966 48.8529C33.8178 50.5376 33.5478 52.2466 32.8149 53.8009C32.082 55.3552 30.9131 56.6975 29.4309 57.6871C27.9486 58.6767 26.2075 59.2772 24.3899 59.4257C22.5724 59.5742 20.7454 59.2652 19.1004 58.5311L14.2004 68.0323Z" fill="#242424"/>
<rect x="48" y="29" width="11" height="25" rx="2" fill="#242424"/>
<rect x="76" y="29" width="11" height="25" rx="3" fill="#242424"/>
<path d="M48 51.5C48 53.9295 48.5044 56.3351 49.4843 58.5796C50.4643 60.8242 51.9007 62.8636 53.7114 64.5815C55.5222 66.2994 57.6718 67.6621 60.0377 68.5918C62.4035 69.5215 64.9392 70 67.5 70C70.0608 70 72.5965 69.5215 74.9623 68.5918C77.3282 67.6621 79.4778 66.2994 81.2886 64.5815C83.0993 62.8636 84.5357 60.8242 85.5157 58.5796C86.4956 56.3351 87 53.9295 87 51.5L76.0029 51.5C76.0029 52.5594 75.783 53.6083 75.3557 54.5871C74.9284 55.5658 74.302 56.4551 73.5125 57.2041C72.7229 57.9532 71.7855 58.5474 70.7539 58.9528C69.7223 59.3582 68.6166 59.5669 67.5 59.5669C66.3834 59.5669 65.2777 59.3582 64.2461 58.9528C63.2145 58.5474 62.2771 57.9532 61.4875 57.2041C60.698 56.4551 60.0716 55.5658 59.6443 54.5871C59.217 53.6083 58.9971 52.5594 58.9971 51.5L48 51.5Z" fill="#242424"/>
<path d="M90 65.0958V64.4828C90 60.9579 91.1878 59.5785 93.2664 57.433L108.114 40.1149H95.7904C92.2271 40.1149 90.4454 38.8889 90.4454 35.364V34.7509C90.4454 31.3793 92.2271 30 95.7904 30H117.616C122.07 30 123.703 32.4521 123.703 34.7509V35.364C123.703 38.8889 122.367 40.2682 120.437 42.4138L105.293 59.7318H118.655C122.218 59.7318 124 61.1111 124 64.636V65.0958C124 68.4674 122.218 70 118.655 70H96.0873C91.7817 70 90 67.5479 90 65.0958Z" fill="#242424"/>
<path d="M127 65.0958V64.4828C127 60.9579 128.188 59.5785 130.266 57.433L145.114 40.1149H132.79C129.227 40.1149 127.445 38.8889 127.445 35.364V34.7509C127.445 31.3793 129.227 30 132.79 30H154.616C159.07 30 160.703 32.4521 160.703 34.7509V35.364C160.703 38.8889 159.367 40.2682 157.437 42.4138L142.293 59.7318H155.655C159.218 59.7318 161 61.1111 161 64.636V65.0958C161 68.4674 159.218 70 155.655 70H133.087C128.782 70 127 67.5479 127 65.0958Z" fill="#242424"/>
</svg>
