<svg width="150" height="150" viewBox="0 0 150 150" fill="none" xmlns="http://www.w3.org/2000/svg">
<path d="M50.4567 66.4547C46.1787 65.605 42.1937 69.0622 42.1937 73.4276V88.1937C42.1937 91.1821 44.2741 93.5845 47.087 94.6392C52.4199 96.6315 56.2583 101.788 56.2583 107.823C56.2583 115.587 49.9586 121.886 42.1937 121.886C34.4289 121.886 28.1292 115.587 28.1292 107.823V35.1646C28.1292 31.2679 24.9939 28.1331 21.0969 28.1331H7.03229C3.13523 28.1331 0 31.2679 0 35.1646V107.823C0 134.045 24.0563 154.758 51.2771 149.045C67.217 145.705 80.0802 132.814 83.4206 116.906C88.519 92.6177 72.5791 70.8494 50.4567 66.4547ZM61.2395 0.00710073C58.5438 -0.139389 56.2583 1.99936 56.2583 4.69476V13.9529C56.2583 16.4432 58.1922 18.4941 60.6535 18.6113C98.5693 20.6621 129.043 51.4249 131.24 89.3656C131.387 91.8267 133.438 93.7603 135.899 93.7603H145.305C148 93.7603 150.139 91.4751 149.993 88.7797C147.502 40.9655 109.059 2.52672 61.2395 0.00710073ZM61.3274 28.1331C58.6024 27.928 56.2583 30.096 56.2583 32.85V42.2546C56.2583 44.7157 58.1629 46.7372 60.5949 46.913C83.0982 48.7588 101.031 66.8942 103.052 89.4535C103.287 91.8852 105.279 93.7603 107.711 93.7603H117.146C119.871 93.7603 122.069 91.4165 121.864 88.6918C119.402 56.4348 93.5881 30.6234 61.3274 28.1331Z" fill="black"/>
</svg>
