<svg width="30" height="30" viewBox="0 0 30 30" fill="none" xmlns="http://www.w3.org/2000/svg">
<path d="M10.0913 13.2909C9.23574 13.121 8.43875 13.8124 8.43875 14.6855V17.6387C8.43875 18.2364 8.85483 18.7169 9.41741 18.9278C10.484 19.3263 11.2517 20.3576 11.2517 21.5647C11.2517 23.1174 9.99171 24.3773 8.43875 24.3773C6.88578 24.3773 5.62583 23.1174 5.62583 21.5647V7.03291C5.62583 6.25359 4.99879 5.62661 4.21937 5.62661H1.40646C0.627046 5.62661 0 6.25359 0 7.03291V21.5647C0 26.809 4.81126 30.9517 10.2554 29.8091C13.4434 29.1411 16.016 26.5629 16.6841 23.3811C17.7038 18.5235 14.5158 14.1699 10.0913 13.2909ZM12.2479 0.00142015C11.7088 -0.0278777 11.2517 0.399871 11.2517 0.938952V2.79058C11.2517 3.28864 11.6384 3.69881 12.1307 3.72225C19.7139 4.13242 25.8085 10.285 26.248 17.8731C26.2773 18.3653 26.6875 18.7521 27.1798 18.7521H29.0609C29.6001 18.7521 30.0279 18.295 29.9986 17.7559C29.5005 8.19311 21.8118 0.505344 12.2479 0.00142015ZM12.2655 5.62661C11.7205 5.5856 11.2517 6.0192 11.2517 6.57V8.45093C11.2517 8.94313 11.6326 9.34744 12.119 9.3826C16.6196 9.75175 20.2061 13.3788 20.6105 17.8907C20.6574 18.377 21.0559 18.7521 21.5423 18.7521H23.4292C23.9743 18.7521 24.4138 18.2833 24.3727 17.7384C23.8805 11.287 18.7176 6.12468 12.2655 5.62661Z" fill="black"/>
</svg>
